<mxfile host="app.diagrams.net" modified="2023-12-19T12:49:41.132Z" agent="Mozilla/5.0 (Macintosh; Intel Mac OS X 10_15_7) AppleWebKit/537.36 (KHTML, like Gecko) Chrome/119.0.0.0 Safari/537.36" etag="7dNwWC73fp3zBv64TAn1" version="22.1.9" type="github">
  <diagram name="第 1 页" id="0k4TBifSkERZmbdtbySY">
    <mxGraphModel dx="1314" dy="805" grid="0" gridSize="10" guides="1" tooltips="1" connect="1" arrows="1" fold="1" page="1" pageScale="1" pageWidth="827" pageHeight="1169" math="0" shadow="0">
      <root>
        <mxCell id="0" />
        <mxCell id="1" parent="0" />
        <mxCell id="LGNTD50chUgOsU70D988-30" value="HashJoin" style="rounded=0;whiteSpace=wrap;html=1;" vertex="1" parent="1">
          <mxGeometry x="40" y="360" width="100" height="50" as="geometry" />
        </mxCell>
        <mxCell id="LGNTD50chUgOsU70D988-36" value="HashJoin" style="rounded=0;whiteSpace=wrap;html=1;" vertex="1" parent="1">
          <mxGeometry x="40" y="870" width="100" height="50" as="geometry" />
        </mxCell>
        <mxCell id="LGNTD50chUgOsU70D988-37" value="SelectInto&lt;br&gt;HashTable" style="rounded=0;whiteSpace=wrap;html=1;" vertex="1" parent="1">
          <mxGeometry x="210" y="360" width="100" height="50" as="geometry" />
        </mxCell>
        <mxCell id="LGNTD50chUgOsU70D988-39" value="HashMatchBase" style="rounded=0;whiteSpace=wrap;html=1;" vertex="1" parent="1">
          <mxGeometry x="380" y="360" width="100" height="50" as="geometry" />
        </mxCell>
        <mxCell id="LGNTD50chUgOsU70D988-40" value="HashMatchBase" style="rounded=0;whiteSpace=wrap;html=1;" vertex="1" parent="1">
          <mxGeometry x="380" y="870" width="100" height="50" as="geometry" />
        </mxCell>
        <mxCell id="LGNTD50chUgOsU70D988-45" style="rounded=0;orthogonalLoop=1;jettySize=auto;html=1;entryX=0.5;entryY=0;entryDx=0;entryDy=0;dashed=1;dashPattern=12 12;endArrow=none;endFill=0;strokeWidth=2;" edge="1" parent="1" source="LGNTD50chUgOsU70D988-30" target="LGNTD50chUgOsU70D988-36">
          <mxGeometry relative="1" as="geometry" />
        </mxCell>
        <mxCell id="LGNTD50chUgOsU70D988-48" value="" style="rounded=0;whiteSpace=wrap;html=1;direction=south;" vertex="1" parent="1">
          <mxGeometry x="70" y="440" width="40" height="150" as="geometry" />
        </mxCell>
        <mxCell id="LGNTD50chUgOsU70D988-49" value="" style="rounded=0;whiteSpace=wrap;html=1;direction=south;" vertex="1" parent="1">
          <mxGeometry x="235" y="480" width="45" height="150" as="geometry" />
        </mxCell>
        <mxCell id="LGNTD50chUgOsU70D988-54" value="" style="edgeStyle=segmentEdgeStyle;endArrow=classic;html=1;curved=0;rounded=0;endSize=8;startSize=8;" edge="1" parent="1">
          <mxGeometry width="50" height="50" relative="1" as="geometry">
            <mxPoint x="110" y="450" as="sourcePoint" />
            <mxPoint x="130" y="480" as="targetPoint" />
            <Array as="points">
              <mxPoint x="160" y="450" />
              <mxPoint x="160" y="480" />
            </Array>
          </mxGeometry>
        </mxCell>
        <mxCell id="LGNTD50chUgOsU70D988-55" value="1.Open" style="text;html=1;align=center;verticalAlign=middle;resizable=0;points=[];autosize=1;strokeColor=none;fillColor=none;" vertex="1" parent="1">
          <mxGeometry x="157" y="452" width="57" height="26" as="geometry" />
        </mxCell>
        <mxCell id="LGNTD50chUgOsU70D988-57" value="1.1OpenBuildSide" style="text;html=1;align=center;verticalAlign=middle;resizable=0;points=[];autosize=1;strokeColor=none;fillColor=none;" vertex="1" parent="1">
          <mxGeometry x="113" y="502" width="115" height="26" as="geometry" />
        </mxCell>
        <mxCell id="LGNTD50chUgOsU70D988-59" value="2.1Open" style="text;html=1;align=center;verticalAlign=middle;resizable=0;points=[];autosize=1;strokeColor=none;fillColor=none;" vertex="1" parent="1">
          <mxGeometry x="284" y="502" width="64" height="26" as="geometry" />
        </mxCell>
        <mxCell id="LGNTD50chUgOsU70D988-62" value="" style="endArrow=block;startArrow=none;endFill=1;startFill=0;html=1;rounded=0;edgeStyle=orthogonalEdgeStyle;entryX=0.137;entryY=1.061;entryDx=0;entryDy=0;entryPerimeter=0;" edge="1" parent="1" target="LGNTD50chUgOsU70D988-49">
          <mxGeometry width="160" relative="1" as="geometry">
            <mxPoint x="110" y="500" as="sourcePoint" />
            <mxPoint x="200" y="500" as="targetPoint" />
          </mxGeometry>
        </mxCell>
        <mxCell id="LGNTD50chUgOsU70D988-65" value="" style="rounded=0;whiteSpace=wrap;html=1;direction=south;" vertex="1" parent="1">
          <mxGeometry x="407.5" y="520" width="45" height="280" as="geometry" />
        </mxCell>
        <mxCell id="LGNTD50chUgOsU70D988-66" style="rounded=0;orthogonalLoop=1;jettySize=auto;html=1;entryX=0.5;entryY=0;entryDx=0;entryDy=0;dashed=1;dashPattern=12 12;endArrow=none;endFill=0;strokeWidth=2;" edge="1" parent="1">
          <mxGeometry relative="1" as="geometry">
            <mxPoint x="429.5" y="410" as="sourcePoint" />
            <mxPoint x="429.5" y="890" as="targetPoint" />
          </mxGeometry>
        </mxCell>
        <mxCell id="LGNTD50chUgOsU70D988-68" value="" style="endArrow=block;startArrow=none;endFill=1;startFill=0;html=1;rounded=0;" edge="1" parent="1">
          <mxGeometry width="160" relative="1" as="geometry">
            <mxPoint x="282.25" y="532.45" as="sourcePoint" />
            <mxPoint x="400" y="532" as="targetPoint" />
          </mxGeometry>
        </mxCell>
        <mxCell id="LGNTD50chUgOsU70D988-69" value="" style="edgeStyle=segmentEdgeStyle;endArrow=classic;html=1;curved=0;rounded=0;endSize=8;startSize=8;" edge="1" parent="1">
          <mxGeometry width="50" height="50" relative="1" as="geometry">
            <mxPoint x="452.5" y="550" as="sourcePoint" />
            <mxPoint x="472.5" y="580" as="targetPoint" />
            <Array as="points">
              <mxPoint x="502.5" y="550" />
              <mxPoint x="502.5" y="580" />
            </Array>
          </mxGeometry>
        </mxCell>
        <mxCell id="LGNTD50chUgOsU70D988-70" value="3.Process Batch" style="text;html=1;align=center;verticalAlign=middle;resizable=0;points=[];autosize=1;strokeColor=none;fillColor=none;" vertex="1" parent="1">
          <mxGeometry x="498" y="557" width="105" height="26" as="geometry" />
        </mxCell>
        <mxCell id="LGNTD50chUgOsU70D988-71" value="" style="edgeStyle=segmentEdgeStyle;endArrow=classic;html=1;curved=0;rounded=0;endSize=8;startSize=8;" edge="1" parent="1">
          <mxGeometry width="50" height="50" relative="1" as="geometry">
            <mxPoint x="452.5" y="610" as="sourcePoint" />
            <mxPoint x="472.5" y="640" as="targetPoint" />
            <Array as="points">
              <mxPoint x="502.5" y="610" />
              <mxPoint x="502.5" y="640" />
            </Array>
          </mxGeometry>
        </mxCell>
        <mxCell id="LGNTD50chUgOsU70D988-74" value="3.1AggregateRows" style="text;html=1;align=center;verticalAlign=middle;resizable=0;points=[];autosize=1;strokeColor=none;fillColor=none;" vertex="1" parent="1">
          <mxGeometry x="498" y="616" width="120" height="26" as="geometry" />
        </mxCell>
        <mxCell id="LGNTD50chUgOsU70D988-77" value="3.1.1GetOrInsertAggregateData" style="text;html=1;align=center;verticalAlign=middle;resizable=0;points=[];autosize=1;strokeColor=none;fillColor=none;" vertex="1" parent="1">
          <mxGeometry x="448.5" y="672" width="188" height="26" as="geometry" />
        </mxCell>
        <mxCell id="LGNTD50chUgOsU70D988-78" value="HashTable" style="rounded=0;whiteSpace=wrap;html=1;" vertex="1" parent="1">
          <mxGeometry x="600" y="360" width="100" height="50" as="geometry" />
        </mxCell>
        <mxCell id="LGNTD50chUgOsU70D988-79" style="rounded=0;orthogonalLoop=1;jettySize=auto;html=1;entryX=0.5;entryY=0;entryDx=0;entryDy=0;dashed=1;dashPattern=12 12;endArrow=none;endFill=0;strokeWidth=2;" edge="1" parent="1" source="LGNTD50chUgOsU70D988-91">
          <mxGeometry relative="1" as="geometry">
            <mxPoint x="649.5" y="410" as="sourcePoint" />
            <mxPoint x="649.5" y="890" as="targetPoint" />
          </mxGeometry>
        </mxCell>
        <mxCell id="LGNTD50chUgOsU70D988-80" value="" style="rounded=0;whiteSpace=wrap;html=1;direction=south;" vertex="1" parent="1">
          <mxGeometry x="627.5" y="585" width="45" height="220" as="geometry" />
        </mxCell>
        <mxCell id="LGNTD50chUgOsU70D988-81" value="" style="endArrow=block;startArrow=none;endFill=1;startFill=0;html=1;rounded=0;" edge="1" parent="1">
          <mxGeometry width="160" relative="1" as="geometry">
            <mxPoint x="452.5" y="700" as="sourcePoint" />
            <mxPoint x="620" y="701" as="targetPoint" />
          </mxGeometry>
        </mxCell>
        <mxCell id="LGNTD50chUgOsU70D988-82" value="" style="edgeStyle=segmentEdgeStyle;endArrow=classic;html=1;curved=0;rounded=0;endSize=8;startSize=8;" edge="1" parent="1">
          <mxGeometry width="50" height="50" relative="1" as="geometry">
            <mxPoint x="680" y="718" as="sourcePoint" />
            <mxPoint x="700" y="748" as="targetPoint" />
            <Array as="points">
              <mxPoint x="730" y="718" />
              <mxPoint x="730" y="748" />
            </Array>
          </mxGeometry>
        </mxCell>
        <mxCell id="LGNTD50chUgOsU70D988-83" value="4.emplace" style="text;html=1;align=center;verticalAlign=middle;resizable=0;points=[];autosize=1;strokeColor=none;fillColor=none;" vertex="1" parent="1">
          <mxGeometry x="726" y="718" width="73" height="26" as="geometry" />
        </mxCell>
        <mxCell id="LGNTD50chUgOsU70D988-84" value="" style="endArrow=block;startArrow=none;endFill=1;startFill=0;html=1;rounded=0;" edge="1" parent="1">
          <mxGeometry width="160" relative="1" as="geometry">
            <mxPoint x="452.5" y="770" as="sourcePoint" />
            <mxPoint x="620" y="771" as="targetPoint" />
          </mxGeometry>
        </mxCell>
        <mxCell id="LGNTD50chUgOsU70D988-85" value="3.1.2 ProcessAggFunctions" style="text;html=1;align=center;verticalAlign=middle;resizable=0;points=[];autosize=1;strokeColor=none;fillColor=none;" vertex="1" parent="1">
          <mxGeometry x="453" y="740" width="165" height="26" as="geometry" />
        </mxCell>
        <mxCell id="LGNTD50chUgOsU70D988-90" value="" style="rounded=0;orthogonalLoop=1;jettySize=auto;html=1;dashed=1;dashPattern=12 12;endArrow=none;endFill=0;strokeWidth=2;" edge="1" parent="1" source="LGNTD50chUgOsU70D988-99">
          <mxGeometry relative="1" as="geometry">
            <mxPoint x="259.5" y="410" as="sourcePoint" />
            <mxPoint x="260" y="880" as="targetPoint" />
          </mxGeometry>
        </mxCell>
        <mxCell id="LGNTD50chUgOsU70D988-92" value="" style="rounded=0;orthogonalLoop=1;jettySize=auto;html=1;entryX=0.5;entryY=0;entryDx=0;entryDy=0;dashed=1;dashPattern=12 12;endArrow=none;endFill=0;strokeWidth=2;" edge="1" parent="1" target="LGNTD50chUgOsU70D988-91">
          <mxGeometry relative="1" as="geometry">
            <mxPoint x="649.5" y="410" as="sourcePoint" />
            <mxPoint x="649.5" y="890" as="targetPoint" />
          </mxGeometry>
        </mxCell>
        <mxCell id="LGNTD50chUgOsU70D988-91" value="HashTable" style="rounded=0;whiteSpace=wrap;html=1;" vertex="1" parent="1">
          <mxGeometry x="600" y="870" width="100" height="50" as="geometry" />
        </mxCell>
        <mxCell id="LGNTD50chUgOsU70D988-38" value="&lt;meta charset=&quot;utf-8&quot;&gt;&lt;span style=&quot;color: rgb(0, 0, 0); font-family: Helvetica; font-size: 12px; font-style: normal; font-variant-ligatures: normal; font-variant-caps: normal; font-weight: 400; letter-spacing: normal; orphans: 2; text-align: center; text-indent: 0px; text-transform: none; widows: 2; word-spacing: 0px; -webkit-text-stroke-width: 0px; background-color: rgb(251, 251, 251); text-decoration-thickness: initial; text-decoration-style: initial; text-decoration-color: initial; float: none; display: inline !important;&quot;&gt;SelectInto&lt;/span&gt;&lt;br style=&quot;border-color: var(--border-color); color: rgb(0, 0, 0); font-family: Helvetica; font-size: 12px; font-style: normal; font-variant-ligatures: normal; font-variant-caps: normal; font-weight: 400; letter-spacing: normal; orphans: 2; text-align: center; text-indent: 0px; text-transform: none; widows: 2; word-spacing: 0px; -webkit-text-stroke-width: 0px; background-color: rgb(251, 251, 251); text-decoration-thickness: initial; text-decoration-style: initial; text-decoration-color: initial;&quot;&gt;&lt;span style=&quot;color: rgb(0, 0, 0); font-family: Helvetica; font-size: 12px; font-style: normal; font-variant-ligatures: normal; font-variant-caps: normal; font-weight: 400; letter-spacing: normal; orphans: 2; text-align: center; text-indent: 0px; text-transform: none; widows: 2; word-spacing: 0px; -webkit-text-stroke-width: 0px; background-color: rgb(251, 251, 251); text-decoration-thickness: initial; text-decoration-style: initial; text-decoration-color: initial; float: none; display: inline !important;&quot;&gt;HashTable&lt;/span&gt;" style="rounded=0;whiteSpace=wrap;html=1;" vertex="1" parent="1">
          <mxGeometry x="210" y="870" width="100" height="50" as="geometry" />
        </mxCell>
        <mxCell id="LGNTD50chUgOsU70D988-95" value="HashJoin" style="rounded=0;whiteSpace=wrap;html=1;" vertex="1" parent="1">
          <mxGeometry x="342" y="1193" width="100" height="50" as="geometry" />
        </mxCell>
        <mxCell id="LGNTD50chUgOsU70D988-96" value="HashJoin" style="rounded=0;whiteSpace=wrap;html=1;" vertex="1" parent="1">
          <mxGeometry x="344" y="1301" width="100" height="50" as="geometry" />
        </mxCell>
        <mxCell id="LGNTD50chUgOsU70D988-100" value="" style="rounded=0;orthogonalLoop=1;jettySize=auto;html=1;dashed=1;dashPattern=12 12;endArrow=none;endFill=0;strokeWidth=2;" edge="1" parent="1" target="LGNTD50chUgOsU70D988-99">
          <mxGeometry relative="1" as="geometry">
            <mxPoint x="259.5" y="410" as="sourcePoint" />
            <mxPoint x="260" y="880" as="targetPoint" />
          </mxGeometry>
        </mxCell>
        <mxCell id="LGNTD50chUgOsU70D988-99" value="" style="rounded=0;whiteSpace=wrap;html=1;direction=south;" vertex="1" parent="1">
          <mxGeometry x="237.5" y="763" width="45" height="93" as="geometry" />
        </mxCell>
        <mxCell id="LGNTD50chUgOsU70D988-101" value="" style="edgeStyle=segmentEdgeStyle;endArrow=classic;html=1;curved=0;rounded=0;endSize=8;startSize=8;" edge="1" parent="1">
          <mxGeometry width="50" height="50" relative="1" as="geometry">
            <mxPoint x="282.5" y="810" as="sourcePoint" />
            <mxPoint x="302.5" y="840" as="targetPoint" />
            <Array as="points">
              <mxPoint x="332.5" y="810" />
              <mxPoint x="332.5" y="840" />
            </Array>
          </mxGeometry>
        </mxCell>
        <mxCell id="LGNTD50chUgOsU70D988-102" value="2.2LoadBuildTableHashTables" style="text;html=1;align=center;verticalAlign=middle;resizable=0;points=[];autosize=1;strokeColor=none;fillColor=none;" vertex="1" parent="1">
          <mxGeometry x="232" y="776" width="179" height="26" as="geometry" />
        </mxCell>
      </root>
    </mxGraphModel>
  </diagram>
</mxfile>
